<?xml version="1.0" standalone="no"?>
<!DOCTYPE svg PUBLIC "-//W3C//DTD SVG 20010904//EN"
 "http://www.w3.org/TR/2001/REC-SVG-20010904/DTD/svg10.dtd">
<svg version="1.0" xmlns="http://www.w3.org/2000/svg"
 width="144.000000pt" height="162.000000pt" viewBox="0 0 144.000000 162.000000"
 preserveAspectRatio="xMidYMid meet">

<g transform="translate(0.000000,162.000000) scale(0.100000,-0.100000)"
fill="#000000" stroke="none">
<path d="M725 1510 c-3 -5 -3 -10 2 -10 4 0 1 -5 -7 -10 -8 -5 -15 -17 -15
-27 0 -11 -9 -19 -23 -21 -14 -2 -21 1 -20 9 6 24 -17 18 -29 -8 -9 -19 -10
-30 -2 -39 6 -8 13 -32 15 -54 2 -22 11 -51 19 -64 14 -21 13 -23 -9 -35 -25
-14 -70 -6 -61 10 4 5 1 9 -5 9 -7 0 -9 -7 -6 -15 4 -11 -3 -19 -22 -25 -15
-6 -38 -17 -52 -24 -26 -15 -26 -14 -28 21 -2 20 -10 52 -19 72 -8 20 -15 46
-14 59 0 13 -5 22 -14 22 -8 0 -15 5 -15 10 0 6 -7 10 -16 10 -11 0 -14 -6 -9
-20 5 -16 2 -20 -19 -20 -14 0 -26 6 -26 13 0 6 -11 17 -25 24 -14 6 -25 9
-25 6 0 -4 16 -34 35 -69 19 -34 35 -75 35 -91 0 -19 3 -24 9 -15 7 11 10 10
15 -3 8 -23 8 -27 -4 -20 -5 3 -10 -1 -10 -9 0 -9 9 -16 20 -16 11 0 20 -4 20
-8 0 -11 -39 -47 -67 -61 -13 -6 -23 -17 -23 -23 0 -6 9 -3 20 7 18 17 20 17
20 1 0 -9 -8 -31 -17 -49 l-18 -32 -3 28 -3 28 -18 -23 c-10 -13 -21 -33 -25
-44 -4 -12 -15 -29 -26 -39 -12 -11 -20 -31 -20 -51 0 -18 -5 -36 -10 -39 -5
-3 -10 -12 -9 -18 0 -9 2 -9 6 1 10 24 18 11 21 -33 3 -53 -3 -57 -23 -12 -8
17 -13 24 -10 13 3 -10 0 -25 -6 -32 -15 -18 -20 -230 -6 -264 5 -14 11 -34
12 -45 5 -38 36 -109 63 -143 56 -73 197 -203 224 -209 39 -8 38 -39 -2 -48
-17 -4 -44 -21 -62 -38 l-32 -32 42 -3 c30 -2 51 4 82 23 37 24 45 25 71 15
23 -10 36 -10 60 0 44 19 129 19 161 1 22 -12 32 -12 54 -3 23 11 32 9 71 -13
44 -24 113 -34 113 -17 0 5 -9 17 -20 27 -18 17 -20 17 -14 2 5 -13 0 -17 -20
-17 -21 0 -28 6 -32 30 -4 17 -13 30 -20 30 -33 0 -11 30 39 52 20 10 37 22
37 28 0 5 11 15 24 22 14 7 48 40 76 73 28 33 62 72 76 88 13 15 24 36 24 46
0 11 6 32 14 48 33 66 37 98 36 282 0 24 -4 49 -9 55 -5 6 -11 27 -14 46 -19
122 -44 175 -42 89 1 -27 -3 -53 -8 -56 -4 -3 -7 26 -6 64 3 58 0 74 -19 100
-12 17 -22 35 -22 40 0 6 -9 18 -19 27 -19 17 -19 17 -15 -1 2 -10 5 -37 7
-61 4 -46 18 -57 29 -20 5 19 6 18 7 -10 1 -18 6 -43 12 -55 10 -21 9 -21 -10
2 -27 30 -27 12 -1 -22 11 -14 20 -34 20 -45 0 -11 7 -33 15 -48 12 -24 15
-25 15 -9 0 11 5 27 10 35 8 11 9 -1 6 -38 -4 -50 -16 -86 -16 -49 0 9 -4 18
-9 22 -6 3 -6 -8 -1 -27 5 -18 11 -60 15 -93 l7 -59 14 32 c15 36 30 44 19 10
-4 -13 -10 -39 -14 -58 l-8 -35 -11 25 c-10 23 -11 22 -10 -15 0 -52 -11 -95
-31 -119 -10 -12 0 -8 24 9 l40 29 -29 -31 c-15 -17 -25 -36 -22 -42 4 -5 -3
-15 -15 -21 -15 -8 -19 -9 -15 -1 4 6 2 11 -3 11 -6 0 -11 -7 -11 -15 0 -18
-40 -78 -55 -84 -5 -2 -26 -20 -45 -40 -19 -20 -52 -48 -72 -61 -43 -29 -48
-40 -15 -41 22 0 21 0 -3 -10 -13 -5 -36 -8 -50 -6 l-25 3 24 10 24 10 -28 22
c-15 12 -42 22 -59 22 -26 -1 -28 -2 -13 -11 9 -6 15 -15 12 -20 -4 -5 -18 -2
-33 9 -20 13 -40 17 -73 14 -26 -2 -56 1 -68 7 -14 8 -21 8 -21 1 0 -5 6 -10
13 -10 8 0 7 -3 -3 -9 -8 -6 -18 -7 -24 -4 -5 3 -15 -2 -23 -12 -12 -17 -13
-17 -13 -2 0 10 10 22 23 27 20 8 20 9 -9 9 -17 1 -43 -8 -58 -20 l-26 -21
-38 23 c-27 17 -33 19 -23 6 18 -22 3 -22 -53 3 -53 22 -60 35 -16 26 27 -5
29 -3 21 12 -5 9 -20 26 -33 37 -12 11 -17 13 -10 5 35 -40 -6 -40 -50 0 -32
29 -25 40 12 20 19 -10 19 -9 -1 25 -12 19 -25 38 -30 41 -5 3 -9 15 -9 27 0
12 -9 33 -20 47 -11 14 -20 33 -20 43 0 10 -4 26 -9 36 -16 29 -12 161 8 266
17 89 24 110 42 134 11 13 19 29 19 35 0 14 47 66 60 66 6 0 10 -4 10 -10 0
-5 -4 -10 -9 -10 -4 0 -6 -11 -3 -25 2 -14 7 -25 11 -25 11 0 36 20 25 20 -15
0 -15 83 0 92 17 11 28 9 20 -3 -5 -8 -2 -9 12 -1 11 6 27 7 41 1 15 -5 23 -5
23 2 0 6 5 7 12 3 6 -4 17 1 25 11 11 17 13 17 13 2 0 -11 7 -16 21 -14 12 1
24 -3 26 -9 2 -7 -14 -11 -44 -11 -84 -1 -91 -3 -96 -20 -4 -17 -5 -17 -6 -1
-1 11 -6 15 -16 12 -20 -8 -19 -31 3 -43 24 -14 6 -14 -21 1 -19 10 -20 9 -9
-4 7 -9 12 -20 10 -24 -2 -12 12 -154 19 -177 4 -15 0 -18 -24 -15 -21 2 -27
8 -26 23 2 11 4 32 5 47 2 14 8 24 13 21 6 -3 4 0 -2 8 -17 17 -17 51 0 68 10
10 7 10 -15 0 l-28 -12 0 -164 c0 -123 3 -162 12 -160 8 1 11 -9 9 -31 -2 -30
0 -33 17 -28 17 6 21 1 27 -24 8 -38 -1 -53 -10 -17 -5 19 -13 24 -31 23 -21
-1 -24 -5 -19 -26 20 -79 123 -186 214 -221 76 -31 202 -30 283 1 76 28 159
104 195 178 28 57 28 57 31 300 2 144 7 240 13 237 5 -4 9 -2 9 4 0 5 -4 13
-10 16 -5 3 -10 25 -10 49 0 31 -6 48 -21 62 -22 19 -22 19 -15 -6 7 -23 6
-24 -7 -7 -19 22 -10 57 13 57 14 0 18 11 22 49 3 33 17 70 41 111 21 34 37
63 37 65 0 2 -11 -2 -25 -8 -14 -7 -25 -18 -25 -24 0 -14 -10 -16 -34 -7 -8 3
-12 12 -9 20 3 8 0 14 -7 14 -16 0 -45 -30 -46 -49 -1 -9 -9 -33 -18 -53 -16
-36 -16 -36 12 -47 l27 -11 -27 4 c-22 2 -28 -1 -28 -16 0 -17 -5 -19 -32 -13
-59 13 -78 23 -72 40 4 10 0 15 -10 15 -9 0 -15 -5 -13 -12 1 -8 -9 -11 -33
-9 -19 1 -37 5 -39 7 -3 2 3 20 12 39 9 20 17 51 17 69 0 19 6 39 14 45 11 9
11 17 2 36 -12 28 -26 33 -26 10 0 -8 -7 -15 -15 -15 -8 0 -15 7 -15 15 0 8
-9 20 -20 27 -11 7 -20 18 -20 25 0 15 -16 17 -25 3z m55 -90 c0 -5 -22 -10
-48 -12 -33 -2 -49 1 -49 9 0 7 3 10 7 8 3 -2 11 0 18 4 15 9 72 2 72 -9z
m-405 -90 c-3 -5 -10 -10 -16 -10 -5 0 -9 5 -9 10 0 6 7 10 16 10 8 0 12 -4 9
-10z m730 0 c-3 -5 -11 -10 -16 -10 -6 0 -7 5 -4 10 3 6 11 10 16 10 6 0 7 -4
4 -10z m-390 -9 c-15 -13 -62 -26 -50 -13 6 5 19 12 30 15 11 3 22 5 25 6 2 0
0 -3 -5 -8z m22 -38 c-3 -10 -5 -2 -5 17 0 19 2 27 5 18 2 -10 2 -26 0 -35z
m54 29 c-7 -2 -18 1 -23 6 -8 8 -4 9 13 5 13 -4 18 -8 10 -11z m-338 -69 c-7
-2 -19 -2 -25 0 -7 3 -2 5 12 5 14 0 19 -2 13 -5z m376 -29 c-6 -8 -18 -14
-26 -14 -12 0 -13 3 -4 13 6 8 8 16 5 20 -3 3 4 3 15 0 17 -4 19 -8 10 -19z
m-372 10 c-3 -3 -12 -4 -19 -1 -8 3 -5 6 6 6 11 1 17 -2 13 -5z m220 -10 c15
-14 14 -15 -12 -12 -16 2 -30 9 -33 16 -5 17 26 15 45 -4z m406 -9 c-3 -9 -8
-14 -10 -11 -3 3 -2 9 2 15 9 16 15 13 8 -4z m-553 -15 c0 -5 -8 -10 -17 -10
-15 0 -16 2 -3 10 19 12 20 12 20 0z m434 -18 c-13 -13 -17 -13 -24 -1 -10 16
6 30 26 22 11 -4 10 -8 -2 -21z m-174 -17 l45 -23 -97 -4 c-100 -3 -105 0 -47
31 44 24 46 24 99 -4z m-380 -30 c-7 -9 -15 -13 -18 -10 -3 2 1 11 8 20 7 9
15 13 18 10 3 -2 -1 -11 -8 -20z m40 1 c0 -3 -4 -8 -10 -11 -5 -3 -10 -1 -10
4 0 6 5 11 10 11 6 0 10 -2 10 -4z m595 -6 c-3 -5 -10 -10 -16 -10 -5 0 -9 5
-9 10 0 6 7 10 16 10 8 0 12 -4 9 -10z m-295 -42 c0 -16 3 -19 11 -11 12 12
39 7 39 -7 0 -9 -11 -10 -57 -10 -40 0 -63 4 -63 11 0 13 28 17 39 6 8 -8 11
-5 11 11 0 12 5 22 10 22 6 0 10 -10 10 -22z m198 -4 c7 4 12 3 12 -3 0 -7 8
-7 25 -1 29 11 38 0 26 -32 -7 -17 -10 -18 -10 -5 -1 18 -7 19 -94 20 -30 0
-46 4 -44 11 2 6 14 10 26 9 14 -2 21 3 21 14 0 15 2 15 13 -2 8 -10 19 -15
25 -11z m-284 -3 c7 -11 -3 -41 -14 -41 -11 0 -21 30 -14 41 3 5 9 9 14 9 5 0
11 -4 14 -9z m180 0 c7 -11 -3 -41 -14 -41 -11 0 -21 30 -14 41 3 5 9 9 14 9
5 0 11 -4 14 -9z m-538 -91 c-11 -37 -14 -40 -15 -18 -1 30 19 89 25 73 2 -6
-2 -30 -10 -55z m470 -16 c31 -14 53 -29 50 -32 -8 -7 -85 -9 -80 -1 2 3 -19
4 -46 1 -57 -5 -64 6 -22 37 34 26 33 26 98 -5z m-502 -16 c-4 -7 -7 -27 -6
-46 2 -21 -1 -31 -8 -27 -11 7 -14 68 -3 78 11 12 25 8 17 -5z m772 -165 c-10
-10 -19 5 -10 18 6 11 8 11 12 0 2 -7 1 -15 -2 -18z m-509 -25 c-3 -7 -5 -2
-5 12 0 14 2 19 5 13 2 -7 2 -19 0 -25z m190 11 c2 -18 -2 -20 -27 -16 -28 6
-28 5 -23 -28 4 -24 2 -35 -6 -35 -7 0 -10 4 -7 9 4 5 -4 7 -16 3 -18 -4 -20
-2 -13 14 4 10 8 26 9 35 0 9 6 15 13 12 7 -3 13 0 13 5 0 10 18 18 45 21 6 0
11 -9 12 -20z m69 8 c2 -2 -7 -9 -20 -15 -21 -10 -24 -9 -23 8 1 12 7 17 20
14 11 -2 21 -5 23 -7z m151 -19 c-3 -7 -5 -2 -5 12 0 14 2 19 5 13 2 -7 2 -19
0 -25z m-715 -28 c1 -28 2 -50 0 -50 -9 0 -31 71 -26 84 12 30 22 16 26 -34z
m1023 13 c-4 -21 -8 -43 -9 -50 -4 -25 -16 -26 -16 -1 0 27 19 88 27 88 3 0 2
-17 -2 -37z m-817 -25 c1 -30 -4 -56 -11 -60 -9 -6 -9 -8 1 -8 7 0 12 -15 12
-41 0 -28 -4 -39 -12 -37 -15 5 -19 75 -5 102 6 13 6 16 -2 12 -7 -5 -11 8
-11 38 0 33 4 46 14 46 10 0 14 -14 14 -52z m69 0 c-3 -7 -5 -2 -5 12 0 14 2
19 5 13 2 -7 2 -19 0 -25z m339 4 c2 -19 -2 -23 -17 -19 -10 3 -17 1 -13 -4 3
-5 0 -9 -5 -9 -14 0 -14 3 0 33 14 31 34 30 35 -1z m-376 -32 c0 -41 -3 -48
-16 -43 -11 4 -12 8 -4 13 7 4 11 20 10 36 -3 35 -2 44 5 44 3 0 5 -22 5 -50z
m554 0 c1 -22 -2 -40 -6 -40 -5 0 -8 21 -8 47 0 56 12 50 14 -7z m-250 -2 c-9
-15 -33 12 -27 29 5 14 8 14 19 -2 7 -10 11 -22 8 -27z m-52 7 c6 -28 -6 -34
-16 -9 -5 14 0 34 8 34 2 0 6 -11 8 -25z m-185 -32 c-3 -10 -5 -4 -5 12 0 17
2 24 5 18 2 -7 2 -21 0 -30z m410 0 c-3 -10 -5 -4 -5 12 0 17 2 24 5 18 2 -7
2 -21 0 -30z m-278 18 c8 -5 11 -16 6 -31 -6 -19 -4 -21 15 -15 21 7 39 -6 40
-29 0 -14 -53 4 -70 24 -10 11 -19 18 -21 16 -2 -3 -5 7 -5 20 -2 25 11 30 35
15z m181 4 c0 -12 -24 -55 -31 -55 -15 0 -21 42 -8 51 15 9 39 12 39 4z m-626
-27 c3 -13 6 -34 6 -48 -1 -24 -1 -24 -15 -6 -16 21 -20 76 -6 76 5 0 11 -10
15 -22z m582 -33 c18 -14 17 -14 -13 -15 -23 0 -33 5 -33 15 0 19 21 19 46 0z
m-572 -79 c20 -41 20 -47 2 -40 -13 5 -36 46 -36 64 0 22 19 8 34 -24z m1015
-16 c-22 -42 -29 -49 -29 -26 0 13 37 66 46 66 2 0 -6 -18 -17 -40z m-749 -65
c0 -19 5 -35 11 -35 5 0 7 -4 4 -10 -8 -14 -18 -13 -41 5 -18 14 -18 15 0 8
16 -5 18 -2 14 30 -2 21 0 37 4 37 4 0 8 -16 8 -35z m249 28 c-5 -28 3 -64 17
-77 14 -15 12 -16 -21 -16 -36 0 -36 1 -30 33 11 54 16 67 26 67 5 0 8 -3 8
-7z m-487 -30 c27 -26 37 -53 19 -53 -11 0 -61 58 -61 71 0 15 13 10 42 -18z
m728 -33 c0 -5 -5 -10 -11 -10 -5 0 -7 5 -4 10 3 6 8 10 11 10 2 0 4 -4 4 -10z
m-670 -77 c0 -20 -19 -15 -45 12 -36 35 -30 49 10 23 19 -13 35 -29 35 -35z
m865 13 c-39 -33 -54 -39 -40 -16 7 11 65 50 75 50 3 0 -13 -16 -35 -34z
m-595 -6 c0 -5 -4 -10 -10 -10 -5 0 -10 5 -10 10 0 6 5 10 10 10 6 0 10 -4 10
-10z m160 -40 c0 -5 -7 -10 -16 -10 -8 0 -12 5 -9 10 3 6 10 10 16 10 5 0 9
-4 9 -10z m386 -19 c-3 -5 -21 -18 -40 -29 -41 -24 -39 -4 2 21 30 18 46 22
38 8z m-95 -86 c-24 -14 -49 -24 -55 -22 -13 4 62 46 84 46 8 1 -5 -11 -29
-24z m-451 -25 c-24 -15 -37 -11 -16 5 11 8 22 12 25 9 3 -3 -1 -9 -9 -14z
m314 -12 c-4 -6 -10 -5 -15 3 -14 22 -10 33 6 19 8 -7 12 -17 9 -22z m-101 10
c14 -11 4 -13 -63 -13 -67 0 -77 2 -63 13 9 6 38 12 63 12 25 0 54 -6 63 -12z
m-234 -28 c8 -4 -12 -6 -43 -5 -31 1 -61 6 -67 12 -12 12 87 6 110 -7z m308
-13 c4 -7 0 -8 -11 -4 -23 9 -102 -3 -86 -13 7 -4 -1 -9 -19 -12 -31 -5 -42 5
-18 16 6 3 3 5 -8 5 -45 -2 -76 1 -71 9 2 4 39 7 80 6 42 -1 78 2 81 6 6 10
43 1 52 -13z m-241 4 c-3 -5 -18 -11 -33 -14 -26 -5 -26 -4 -8 9 21 15 49 19
41 5z m229 -42 c12 -19 -3 -21 -29 -4 -29 19 -26 41 4 25 10 -6 22 -15 25 -21z
m-228 10 c-9 -6 -15 -14 -12 -19 3 -4 -2 -10 -10 -13 -12 -5 -12 -2 -3 18 6
14 18 25 27 25 14 -1 13 -2 -2 -11z m-73 -33 c-21 -19 -41 -32 -44 -29 -7 6
57 63 72 63 6 0 -6 -15 -28 -34z m360 13 c28 -22 34 -39 14 -39 -14 0 -58 40
-58 52 0 14 16 9 44 -13z m-214 1 c11 -7 6 -10 -20 -10 -26 0 -31 3 -20 10 8
5 17 10 20 10 3 0 12 -5 20 -10z m94 4 c39 -15 6 -24 -54 -14 -7 1 23 20 32
20 3 0 13 -3 22 -6z m-294 -32 c0 -8 -53 -42 -65 -42 -13 0 19 32 40 40 26 11
25 11 25 2z m130 -2 c-20 -13 -33 -13 -25 0 3 6 14 10 23 10 15 0 15 -2 2 -10z
m205 0 c-3 -5 -11 -10 -16 -10 -6 0 -7 5 -4 10 3 6 11 10 16 10 6 0 7 -4 4
-10z"/>
<path d="M467 1479 c-34 -39 -27 -50 13 -20 31 22 38 15 20 -20 -6 -10 -17
-19 -25 -19 -9 0 -12 -6 -9 -15 4 -8 11 -12 17 -8 6 4 34 12 61 18 50 11 75
35 38 35 -11 0 -32 14 -45 30 -14 17 -29 30 -34 30 -5 0 -21 -14 -36 -31z"/>
<path d="M948 1488 c-7 -13 -11 -26 -11 -29 1 -4 -3 -6 -10 -6 -69 2 -58 -23
18 -40 32 -7 60 -11 62 -9 3 2 -5 14 -16 25 -12 12 -21 28 -21 38 0 15 1 15
18 0 10 -10 27 -17 37 -17 16 0 15 4 -10 30 -34 36 -50 38 -67 8z"/>
<path d="M540 1386 c0 -2 8 -10 18 -17 15 -13 16 -12 3 4 -13 16 -21 21 -21
13z"/>
<path d="M919 1373 c-13 -16 -12 -17 4 -4 9 7 17 15 17 17 0 8 -8 3 -21 -13z"/>
<path d="M530 1361 c0 -4 11 -18 25 -31 14 -13 25 -21 25 -17 0 3 -11 17 -25
31 -14 14 -25 22 -25 17z"/>
<path d="M922 1342 c-13 -13 -22 -26 -19 -28 2 -2 14 7 27 21 13 14 22 26 19
28 -2 2 -14 -8 -27 -21z"/>
<path d="M510 1354 c0 -7 9 -22 21 -35 16 -19 18 -20 10 -4 -17 34 -31 51 -31
39z"/>
<path d="M946 1328 l-17 -33 20 24 c18 20 27 41 18 41 -1 0 -11 -15 -21 -32z"/>
<path d="M418 825 c-3 -14 -1 -25 3 -25 5 0 9 11 9 25 0 14 -2 25 -4 25 -2 0
-6 -11 -8 -25z"/>
<path d="M382 575 c0 -16 2 -22 5 -12 2 9 2 23 0 30 -3 6 -5 -1 -5 -18z"/>
<path d="M980 76 c0 -2 7 -7 16 -10 8 -3 12 -2 9 4 -6 10 -25 14 -25 6z"/>
</g>
</svg>
